<svg width="27" height="25" viewBox="0 0 27 25" fill="none" xmlns="http://www.w3.org/2000/svg">
<path d="M11.3047 9.52839C11.3047 10.7168 12.2862 11.6837 13.4925 11.6837C14.6988 11.6837 15.6802 10.7168 15.6802 9.52839C15.6802 8.33999 14.6988 7.37305 13.4925 7.37305C12.2862 7.37305 11.3047 8.33999 11.3047 9.52839ZM14.6637 9.52839C14.6637 10.1645 14.1382 10.6822 13.4925 10.6822C12.8467 10.6822 12.3213 10.1645 12.3213 9.52839C12.3213 8.89222 12.8467 8.37455 13.4925 8.37455C14.1382 8.37384 14.6637 8.89152 14.6637 9.52839Z" fill="#32B38C"/>
<path d="M25.8693 8.72614C26.0082 9.10699 26.1299 9.49631 26.233 9.89268C26.596 9.5224 26.8623 9.12604 26.9597 8.71486C27.0592 8.2931 26.9747 7.88968 26.7155 7.54762C26.3991 7.12939 25.8529 6.91075 25.0933 6.89594C22.7187 6.8508 18.3882 8.85168 15.9714 11.7948C15.7144 12.1073 15.4967 12.4592 15.3156 12.8668C14.8553 12.9035 14.3964 12.9254 13.9404 12.9324L13.266 12.9395C12.7341 12.9437 12.2129 12.9303 11.6996 12.8993C11.5149 12.4775 11.293 12.1157 11.0295 11.7948C8.61197 8.85098 4.28152 6.85151 1.90689 6.89523C1.14733 6.91005 0.601097 7.12939 0.284672 7.54691C0.0255174 7.88897 -0.0589583 8.2924 0.0405512 8.71415C0.137913 9.12533 0.404226 9.5217 0.767185 9.89268C0.869558 9.4956 0.991261 9.10629 1.13014 8.72544C1.08146 8.63869 1.0471 8.55829 1.03063 8.48776C0.999135 8.35375 1.01918 8.25219 1.09936 8.14711C1.2046 8.00817 1.47091 7.92071 1.83459 7.90167C1.86537 7.90026 1.89544 7.89814 1.92694 7.89744C1.94627 7.89673 1.96631 7.89673 1.98636 7.89673C2.0515 7.89673 2.11951 7.89885 2.18895 7.90308C2.20184 7.90379 2.21544 7.9052 2.22833 7.9059C2.28846 7.91013 2.35003 7.91507 2.41303 7.92142C2.42234 7.92212 2.43164 7.92353 2.44095 7.92494C2.51111 7.9327 2.5827 7.94187 2.65572 7.95316C2.6593 7.95386 2.66288 7.95457 2.66646 7.95457C2.74664 7.96656 2.82825 7.98066 2.91201 7.99688C5.00028 8.39889 8.244 9.99424 10.2385 12.4239C10.3316 12.5375 10.4189 12.6595 10.4998 12.7907C8.17599 12.5128 5.99823 11.8414 3.80115 10.7376C3.28499 10.4788 2.85402 10.2277 2.49464 9.9893C2.39585 10.3285 2.31352 10.6741 2.24766 11.0254C2.61276 11.2496 2.98718 11.4528 3.3394 11.6298C5.83143 12.8817 8.29912 13.6039 10.9644 13.8472C11.346 15.0871 11.4684 16.894 11.3896 19.6241C11.3345 21.5228 10.7912 22.8275 9.85906 23.2972C9.0143 23.7232 8.0099 23.4044 7.35056 22.9636L7.06492 23.3776L7.33052 22.9509C3.81475 20.8266 1.71575 17.1359 1.71575 13.0784C1.71575 12.4352 1.77015 11.8047 1.87324 11.1904L1.8711 11.189L1.89043 11.0881C1.90618 10.9986 1.92407 10.9097 1.94197 10.8208C1.97419 10.66 2.0107 10.5006 2.05007 10.3419C2.05651 10.3144 2.06367 10.2869 2.07083 10.2601C2.11092 10.1014 2.15388 9.94346 2.20112 9.78759L2.29705 9.45752L2.30493 9.46246C2.43665 9.0682 2.58914 8.68242 2.76239 8.30791C2.47603 8.25643 2.21401 8.23033 1.98564 8.23033C1.96774 8.23033 1.95056 8.23033 1.93266 8.23104C1.83387 8.23315 1.75083 8.2402 1.67995 8.25008C1.61266 8.40947 1.54823 8.56957 1.48738 8.73179L1.448 8.83899C1.35708 9.08795 1.27476 9.34185 1.19959 9.59857C1.19887 9.6021 1.19744 9.60563 1.19672 9.60915C1.16093 9.73117 1.12656 9.85318 1.09507 9.9759L1.08218 10.0253C1.07287 10.0619 1.065 10.0986 1.05569 10.1353C1.05354 10.1438 1.05068 10.1522 1.04925 10.1607L1.04996 10.1614C0.823025 11.098 0.700607 12.0748 0.700607 13.0791C0.700607 17.4878 2.98073 21.4981 6.80075 23.8057C7.96122 24.5731 9.27632 24.7177 10.323 24.1894C11.2264 23.7338 12.3217 22.5771 12.4062 19.6538C12.4814 17.0541 12.3783 15.2472 12.0425 13.9198C12.4485 13.9375 12.8587 13.9438 13.2753 13.941L13.9525 13.9339C14.2883 13.929 14.6248 13.9163 14.9634 13.8951C14.6226 15.2246 14.5174 17.0372 14.5933 19.6538C14.6778 22.5786 15.7394 23.7345 16.615 24.1887C17.0237 24.401 17.4826 24.5054 17.9644 24.5054C18.6889 24.5054 19.4649 24.2684 20.1987 23.805C20.2016 23.8036 20.2038 23.8015 20.2066 23.8001C20.2073 23.7994 20.208 23.7994 20.2088 23.7994C24.0223 21.491 26.2989 17.4843 26.2989 13.0791C26.2989 12.0748 26.1765 11.098 25.9495 10.1614C25.9502 10.1607 25.9502 10.1607 25.951 10.1607C25.9467 10.1431 25.9409 10.1254 25.9366 10.1078C25.9281 10.0739 25.9209 10.0394 25.9123 10.0055L25.9044 9.97661C25.8751 9.86376 25.8436 9.75092 25.8106 9.63737C25.8028 9.60915 25.7935 9.58094 25.7856 9.55273C25.7405 9.4011 25.6925 9.24946 25.6417 9.09853C25.6374 9.08584 25.6331 9.07244 25.6288 9.05904C25.6288 9.05904 25.6281 9.05974 25.6281 9.06045C25.603 8.9871 25.5773 8.91375 25.5508 8.8411L25.4992 8.70005C25.442 8.54912 25.3818 8.3996 25.3195 8.25149C25.2487 8.24161 25.1656 8.23456 25.0675 8.23245C25.0504 8.23245 25.0325 8.23174 25.0146 8.23174C24.7862 8.23174 24.5242 8.25854 24.2378 8.31003C24.4104 8.68453 24.5628 9.06961 24.6953 9.46457L24.7024 9.45963L24.7977 9.78688C24.7977 9.78759 24.7984 9.789 24.7984 9.78971C24.8478 9.95404 24.8936 10.1198 24.9358 10.2869C24.938 10.2968 24.9408 10.3067 24.943 10.3166C24.9831 10.4759 25.0189 10.6375 25.0518 10.7997C25.0611 10.8469 25.0718 10.8942 25.0804 10.9414C25.0819 10.9499 25.084 10.9591 25.0854 10.9675L25.0905 10.9922C25.094 11.0113 25.0976 11.0303 25.1012 11.0493L25.1277 11.1911L25.1248 11.1925C25.2279 11.8075 25.2823 12.438 25.2823 13.0805C25.2823 17.1387 23.1833 20.8295 19.6675 22.9531L19.9324 23.379L19.6575 22.9594C18.7462 23.5377 17.7862 23.6668 17.0882 23.305C16.1761 22.8318 15.6643 21.5594 15.6084 19.627C15.529 16.8637 15.6557 15.0462 16.048 13.8056C18.739 13.5143 21.4272 12.754 23.6594 11.6326C24.0123 11.4556 24.3867 11.2525 24.7518 11.0282C24.686 10.6769 24.6022 10.3321 24.5034 9.99283C24.144 10.2305 23.7131 10.4816 23.1969 10.7411C21.2354 11.7264 18.9001 12.419 16.5334 12.7385C16.6042 12.6278 16.6801 12.5241 16.7596 12.4267C18.7548 9.99635 21.9985 8.40171 24.0868 7.9997C24.1698 7.98348 24.2514 7.96938 24.3309 7.95739C24.3345 7.95668 24.338 7.95598 24.3423 7.95598C24.4154 7.94469 24.487 7.93552 24.5564 7.92777C24.5657 7.92635 24.5757 7.92565 24.585 7.92424C24.648 7.91719 24.7096 7.91225 24.7697 7.90872C24.7826 7.90802 24.7962 7.90661 24.8091 7.9059C24.8793 7.90167 24.9466 7.89955 25.0117 7.89955C25.0317 7.89955 25.0518 7.89955 25.0711 7.90026C25.1033 7.90096 25.1334 7.90308 25.1635 7.90449C25.5271 7.92353 25.7935 8.01099 25.8987 8.14993C25.9782 8.25502 25.9989 8.35728 25.9674 8.49058C25.9531 8.55829 25.9187 8.63869 25.8693 8.72614Z" fill="#32B38C"/>
<path d="M13.464 1.5054H13.5363C17.657 1.5054 21.2888 3.60714 23.3856 6.7795C23.765 6.68781 24.1266 6.62433 24.4652 6.59048C22.228 2.94559 18.166 0.503906 13.5363 0.503906H13.464C8.83432 0.503906 4.77233 2.94559 2.53516 6.59048C2.87377 6.62433 3.2353 6.68781 3.61473 6.7795C5.71158 3.60714 9.34332 1.5054 13.464 1.5054Z" fill="#32B38C"/>
</svg>
