<svg xmlns="http://www.w3.org/2000/svg" width="25.964" height="18" viewBox="0 0 25.964 18">
  <g id="delivery" transform="translate(0 -78.521)">
    <g id="Сгруппировать_489" data-name="Сгруппировать 489" transform="translate(16.336 89.976)">
      <g id="Сгруппировать_488" data-name="Сгруппировать 488">
        <path id="Контур_6" data-name="Контур 6" d="M325.424,304.4a3.273,3.273,0,1,0,3.273,3.273A3.276,3.276,0,0,0,325.424,304.4Zm0,4.909a1.636,1.636,0,1,1,1.636-1.636A1.638,1.638,0,0,1,325.424,309.312Z" transform="translate(-322.151 -304.403)"/>
      </g>
    </g>
    <g id="Сгруппировать_491" data-name="Сгруппировать 491" transform="translate(5.155 89.976)">
      <g id="Сгруппировать_490" data-name="Сгруппировать 490">
        <path id="Контур_7" data-name="Контур 7" d="M104.92,304.4a3.273,3.273,0,1,0,3.273,3.273A3.276,3.276,0,0,0,104.92,304.4Zm0,4.909a1.636,1.636,0,1,1,1.636-1.636A1.638,1.638,0,0,1,104.92,309.312Z" transform="translate(-101.647 -304.403)"/>
      </g>
    </g>
    <g id="Сгруппировать_493" data-name="Сгруппировать 493" transform="translate(16.773 80.157)">
      <g id="Сгруппировать_492" data-name="Сгруппировать 492">
        <path id="Контур_8" data-name="Контур 8" d="M335.8,111.241a.819.819,0,0,0-.731-.451h-4.309v1.636h3.8l2.228,4.431,1.462-.735Z" transform="translate(-330.756 -110.79)"/>
      </g>
    </g>
    <g id="Сгруппировать_495" data-name="Сгруппировать 495" transform="translate(10.964 92.457)">
      <g id="Сгруппировать_494" data-name="Сгруппировать 494">
        <rect id="Прямоугольник_976" data-name="Прямоугольник 976" width="6.191" height="1.636"/>
      </g>
    </g>
    <g id="Сгруппировать_497" data-name="Сгруппировать 497" transform="translate(2.318 92.457)">
      <g id="Сгруппировать_496" data-name="Сгруппировать 496">
        <path id="Контур_9" data-name="Контур 9" d="M49.369,353.345H46.533a.818.818,0,1,0,0,1.636H49.37a.818.818,0,1,0,0-1.636Z" transform="translate(-45.715 -353.345)"/>
      </g>
    </g>
    <g id="Сгруппировать_499" data-name="Сгруппировать 499" transform="translate(2.318 78.521)">
      <g id="Сгруппировать_498" data-name="Сгруппировать 498">
        <path id="Контур_10" data-name="Контур 10" d="M69.189,87.456l-1.609-2.073a.817.817,0,0,0-.646-.316H60.988V79.339a.818.818,0,0,0-.818-.818H46.533a.818.818,0,1,0,0,1.636H59.351v5.727a.818.818,0,0,0,.818.818h6.363l1.192,1.535v4.22H65.46a.818.818,0,0,0,0,1.636h3.082a.818.818,0,0,0,.818-.818V87.957A.819.819,0,0,0,69.189,87.456Z" transform="translate(-45.715 -78.521)"/>
      </g>
    </g>
    <g id="Сгруппировать_501" data-name="Сгруппировать 501" transform="translate(1.336 88.312)">
      <g id="Сгруппировать_500" data-name="Сгруппировать 500">
        <path id="Контур_11" data-name="Контур 11" d="M30.935,271.6H27.171a.818.818,0,0,0,0,1.636h3.764a.818.818,0,0,0,0-1.636Z" transform="translate(-26.353 -271.597)"/>
      </g>
    </g>
    <g id="Сгруппировать_503" data-name="Сгруппировать 503" transform="translate(0 85.094)">
      <g id="Сгруппировать_502" data-name="Сгруппировать 502">
        <path id="Контур_12" data-name="Контур 12" d="M7.8,208.134H.818a.818.818,0,0,0,0,1.636H7.8a.818.818,0,0,0,0-1.636Z" transform="translate(0 -208.134)"/>
      </g>
    </g>
    <g id="Сгруппировать_505" data-name="Сгруппировать 505" transform="translate(1.336 81.876)">
      <g id="Сгруппировать_504" data-name="Сгруппировать 504">
        <path id="Контур_13" data-name="Контур 13" d="M34.153,144.672H27.171a.818.818,0,0,0,0,1.636h6.982a.818.818,0,0,0,0-1.636Z" transform="translate(-26.353 -144.672)"/>
      </g>
    </g>
  </g>
</svg>
